<?xml version="1.0" encoding="iso-8859-1"?>
<!-- Generator: Adobe Illustrator 19.0.0, SVG Export Plug-In . SVG Version: 6.00 Build 0)  -->
<svg version="1.1" id="Layer_1" xmlns="http://www.w3.org/2000/svg" xmlns:xlink="http://www.w3.org/1999/xlink" x="0px" y="0px"
	 viewBox="0 0 299.728 299.728" style="enable-background:new 0 0 299.728 299.728;" xml:space="preserve">
<g id="XMLID_129_">
	<g>
		<g>
			<circle cx="197.978" cy="72.992" r="30.909"/>
			<path d="M293.993,173.926l-52.159-11.102c-0.856-6.826-6.619-12.153-13.692-12.247l-44.903-0.597l-9.77-16.269
				c4.711-8.465,3.013-19.353-4.606-25.937L141.98,84.544c-9.204-7.953-23.258-6.382-30.472,3.429l-61.244,83.273
				c-5.424,7.669-2.769,18.324,4.587,25.471c1.999,1.943,29.537,27.012,29.537,27.012l-67.468-0.466
				C7.646,223.186,0.065,230.671,0,239.951c-0.064,9.281,7.407,16.856,16.689,16.92l111.964,0.773
				c0.039,0.001,0.078,0.001,0.117,0.001c6.943-0.001,13.177-4.273,15.679-10.759c2.516-6.523,0.729-13.921-4.484-18.578
				l-26.894-24.025l3.12-3.611l-3.719-2.876c-6.883-5.322-9.234-14.347-6.455-22.118l20.693-57.641l-6.183,59.158
				c-0.504,4.825,1.524,9.567,5.362,12.534l41.699,32.243c3.124,2.415,7.116,3.424,11.105,2.689
				c14.267,10.849,10.011,7.612,22.839,17.367v8.584c0,3.674,2.978,6.652,6.652,6.652h54.975c1.129,0,2.1-0.8,2.316-1.908
				c0.216-1.108-0.383-2.215-1.43-2.638l-52.56-21.288c-0.077-0.064-0.149-0.132-0.229-0.193
				c-12.197-9.275-4.851-3.689-21.655-16.466c1.542-5.354-0.206-11.341-4.882-14.956l-35.526-27.47l5.372-51.396
				c0.714,5.205,5.095,37.121,5.698,41.513l20.031,15.489l47.475,0.631c0.064,0.001,0.127,0.001,0.19,0.001
				c2.822,0,5.451-0.842,7.654-2.284l20.953,4.46l-4.299,11.097c-0.315,0.813-0.257,1.724,0.157,2.491
				c0.415,0.767,1.145,1.314,1.999,1.496l33.513,7.133c0.853,0.181,1.743-0.02,2.435-0.552s1.115-1.34,1.158-2.211l0.597-11.988
				c0.122,0.006,0.246,0.019,0.367,0.019c3.344,0,6.348-2.331,7.072-5.732C300.398,178.602,297.903,174.758,293.993,173.926z"/>
		</g>
	</g>
</g>
<g>
</g>
<g>
</g>
<g>
</g>
<g>
</g>
<g>
</g>
<g>
</g>
<g>
</g>
<g>
</g>
<g>
</g>
<g>
</g>
<g>
</g>
<g>
</g>
<g>
</g>
<g>
</g>
<g>
</g>
</svg>
