<?xml version="1.0" encoding="iso-8859-1"?>
<!-- Generator: Adobe Illustrator 19.0.0, SVG Export Plug-In . SVG Version: 6.00 Build 0)  -->
<svg version="1.1" id="Layer_1" xmlns="http://www.w3.org/2000/svg" xmlns:xlink="http://www.w3.org/1999/xlink" x="0px" y="0px"
	 viewBox="0 0 469.333 469.333" style="enable-background:new 0 0 469.333 469.333;" xml:space="preserve">
<g>
	<g>
		<path d="M416,394.667V163.84c0-33.707-24.107-57.173-58.667-57.173H326.72c-21.333,0-38.72-18.987-38.72-42.347v-2.56
			C288,28.267,259.093,0,224.96,0H123.093c-32.96,0-69.76,26.56-69.76,62.08v87.787C21.973,153.28,0,175.253,0,204.587V352
			c0,22.72,16.107,34.667,32,34.667c6.613,0,13.013-2.133,18.347-5.973c18.667,40,66.24,57.173,106.24,38.507
			c19.733-9.28,34.88-26.133,41.813-46.827c1.387,0.64,2.773,0.96,4.267,0.96h113.92c16.853,0,35.413-19.093,35.413-36.373v-26.667
			c0-17.28-9.387-35.093-25.067-47.893L195.947,160c-11.52-9.387-26.027-10.667-39.893-10.667H74.667V62.08
			c0-22.613,26.453-40.747,48.427-40.747h101.76c22.613,0,41.707,18.56,41.707,40.427v2.56c0,35.093,26.987,63.68,60.053,63.68
			h30.72c22.72,0,37.333,14.08,37.333,35.84v230.827c-35.413,0-53.333,18.24-53.333,54.187v9.813c0,5.867,4.8,10.667,10.667,10.667
			h106.667c5.867,0,10.667-4.8,10.667-10.667v-9.813C469.333,412.907,451.413,394.667,416,394.667z M122.667,405.333
			C90.24,405.333,64,379.093,64,346.667C64,314.24,90.24,288,122.667,288c32.427,0,58.667,26.24,58.667,58.667
			C181.333,379.093,155.093,405.333,122.667,405.333z M155.947,170.667c11.627,0,20.48,0.96,26.667,5.973L313.6,279.04
			c10.667,8.64,17.067,20.373,17.067,31.253v26.667c0,5.44-8.96,15.04-14.08,15.04h-113.92c-0.107,0-0.213,0-0.32,0
			c0.107-1.813,0.32-3.627,0.32-5.333c0-44.16-35.84-80-80-80s-80,35.84-80,80c0,1.493,0.107,2.88,0.213,4.267
			c-0.107,0.32-0.213,0.747-0.213,1.067c0,9.813-5.547,13.333-10.667,13.333S21.333,361.813,21.333,352V204.587
			c0-23.467,20.48-33.92,40.64-33.92H155.947z M362.667,448c0.213-23.573,8.64-32,32-32H416c23.36,0,31.787,8.427,32,32H362.667z"/>
	</g>
</g>
<g>
</g>
<g>
</g>
<g>
</g>
<g>
</g>
<g>
</g>
<g>
</g>
<g>
</g>
<g>
</g>
<g>
</g>
<g>
</g>
<g>
</g>
<g>
</g>
<g>
</g>
<g>
</g>
<g>
</g>
</svg>
