<?xml version="1.0" encoding="iso-8859-1"?>
<!-- Generator: Adobe Illustrator 19.0.0, SVG Export Plug-In . SVG Version: 6.00 Build 0)  -->
<svg version="1.1" id="Layer_1" xmlns="http://www.w3.org/2000/svg" xmlns:xlink="http://www.w3.org/1999/xlink" x="0px" y="0px"
	 viewBox="0 0 512.001 512.001" style="enable-background:new 0 0 512.001 512.001;" xml:space="preserve">
<g>
	<g>
		<path d="M169.214,38.917h-56.774c-5.633,0-10.199,4.567-10.199,10.199v56.774c0,5.632,4.566,10.199,10.199,10.199h56.774
			c5.633,0,10.199-4.567,10.199-10.199V49.116C179.414,43.484,174.847,38.917,169.214,38.917z M159.015,95.691H122.64V59.315h36.375
			V95.691z"/>
	</g>
</g>
<g>
	<g>
		<path d="M270.858,38.917h-56.774c-5.633,0-10.199,4.567-10.199,10.199v56.774c0,5.633,4.566,10.199,10.199,10.199h56.774
			c5.633,0,10.199-4.567,10.199-10.199V49.116C281.057,43.484,276.491,38.917,270.858,38.917z M260.658,95.691h-36.375V59.315
			h36.375V95.691z"/>
	</g>
</g>
<g>
	<g>
		<path d="M169.214,139.645h-56.774c-5.633,0-10.199,4.567-10.199,10.199v56.773c0,5.632,4.566,10.199,10.199,10.199h56.774
			c5.633,0,10.199-4.567,10.199-10.199v-56.773C179.414,144.213,174.847,139.645,169.214,139.645z M159.015,196.418H122.64v-36.374
			h36.375V196.418z"/>
	</g>
</g>
<g>
	<g>
		<path d="M270.858,139.645h-56.774c-5.633,0-10.199,4.567-10.199,10.199v56.773c0,5.632,4.566,10.199,10.199,10.199h56.774
			c5.633,0,10.199-4.567,10.199-10.199v-56.773C281.057,144.213,276.491,139.645,270.858,139.645z M260.658,196.418h-36.375v-36.374
			h36.375V196.418z"/>
	</g>
</g>
<g>
	<g>
		<path d="M169.214,240.373h-56.774c-5.633,0-10.199,4.567-10.199,10.199v56.774c0,5.632,4.566,10.199,10.199,10.199h56.774
			c5.633,0,10.199-4.567,10.199-10.199v-56.774C179.414,244.939,174.847,240.373,169.214,240.373z M159.015,297.147H122.64v-36.375
			h36.375V297.147z"/>
	</g>
</g>
<g>
	<g>
		<path d="M270.858,240.373h-56.774c-5.633,0-10.199,4.567-10.199,10.199v56.774c0,5.632,4.566,10.199,10.199,10.199h56.774
			c5.633,0,10.199-4.567,10.199-10.199v-56.774C281.057,244.94,276.491,240.373,270.858,240.373z M260.659,297.147L260.659,297.147
			h-36.376v-36.375h36.376V297.147z"/>
	</g>
</g>
<g>
	<g>
		<path d="M191.649,374.981c-5.633,0-10.199,4.567-10.199,10.199v0.915c0,5.632,4.566,10.199,10.199,10.199
			s10.199-4.567,10.199-10.199v-0.915C201.848,379.548,197.282,374.981,191.649,374.981z"/>
	</g>
</g>
<g>
	<g>
		<path d="M445.083,343.592c-1.383-4.1-5.202-6.88-9.527-6.939c-25.586-0.343-48.898-6.973-62.358-17.735
			c-10.433-8.341-25.596-8.334-36.055,0.019v-0.001c-4.323,3.452-9.682,6.473-15.796,9.006V10.199
			C321.347,4.567,316.781,0,311.148,0H72.15C66.517,0,61.95,4.567,61.95,10.199v440.455c0,5.632,4.566,10.199,10.199,10.199h221.813
			c3.678,4.623,7.641,9.177,11.907,13.647c21.854,22.901,43.552,35.596,44.464,36.126c1.582,0.917,3.348,1.376,5.115,1.376
			c1.766,0,3.533-0.458,5.115-1.376c0.913-0.529,22.611-13.224,44.464-36.126c29.453-30.865,45.022-65.674,45.022-100.663
			C450.051,363.538,448.379,353.363,445.083,343.592z M228.151,440.454h-26.303v-26.886c0-5.632-4.566-10.199-10.199-10.199
			s-10.199,4.567-10.199,10.199v26.886h-26.303v-74.378h73.004V440.454z M248.549,440.454v-84.576
			c0-5.632-4.566-10.199-10.199-10.199h-93.402c-5.633,0-10.199,4.567-10.199,10.199v84.577H82.349V20.398h218.601v313.569
			c-8.051,1.594-16.698,2.528-25.637,2.677c-4.313,0.072-8.115,2.85-9.494,6.938c-3.298,9.775-4.971,19.953-4.971,30.253
			c0,22.622,6.516,45.165,19.076,66.618H248.549z M355.439,489.707c-17.566-11.761-74.193-54.454-74.193-115.87
			c0-5.769,0.669-11.49,1.995-17.084c27.077-1.621,51.06-9.442,66.631-21.876c0,0,0,0,0.001-0.001
			c3.078-2.456,7.53-2.468,10.587-0.024c15.444,12.347,40.162,20.344,67.204,21.926c1.322,5.585,1.989,11.298,1.989,17.06
			C429.652,435.081,372.979,477.918,355.439,489.707z"/>
	</g>
</g>
<g>
</g>
<g>
</g>
<g>
</g>
<g>
</g>
<g>
</g>
<g>
</g>
<g>
</g>
<g>
</g>
<g>
</g>
<g>
</g>
<g>
</g>
<g>
</g>
<g>
</g>
<g>
</g>
<g>
</g>
</svg>
